<svg width="128" height="128" viewBox="0 0 128 128" fill="none" xmlns="http://www.w3.org/2000/svg">
  <defs>
    <linearGradient id="bg" x1="12" y1="10" x2="116" y2="118" gradientUnits="userSpaceOnUse">
      <stop offset="0" stop-color="#EEF4FF"/>
      <stop offset="1" stop-color="#DDE9FF"/>
    </linearGradient>
    <linearGradient id="folder" x1="20" y1="28" x2="108" y2="102" gradientUnits="userSpaceOnUse">
      <stop offset="0" stop-color="#3B82F6"/>
      <stop offset="1" stop-color="#2563EB"/>
    </linearGradient>
  </defs>

  <rect x="8" y="8" width="112" height="112" rx="24" fill="url(#bg)"/>

  <path d="M24 44C24 37.3726 29.3726 32 36 32H51.2C53.8 32 56.2 33.1 57.9 35L62.3 40H92C98.6274 40 104 45.3726 104 52V88C104 94.6274 98.6274 100 92 100H36C29.3726 100 24 94.6274 24 88V44Z" fill="url(#folder)"/>

  <rect x="37" y="56" width="54" height="8" rx="4" fill="#FFFFFF" fill-opacity="0.96"/>
  <rect x="37" y="70" width="46" height="8" rx="4" fill="#FFFFFF" fill-opacity="0.92"/>
  <rect x="37" y="84" width="36" height="8" rx="4" fill="#FFFFFF" fill-opacity="0.9"/>
</svg>
